<mxfile host="app.diagrams.net" agent="Mozilla/5.0 (Windows NT 10.0; Win64; x64) AppleWebKit/537.36 (KHTML, like Gecko) Chrome/128.0.0.0 Safari/537.36" version="24.7.8">
  <diagram id="C5RBs43oDa-KdzZeNtuy" name="Page-1">
    <mxGraphModel dx="1434" dy="738" grid="1" gridSize="10" guides="1" tooltips="1" connect="1" arrows="1" fold="1" page="1" pageScale="1" pageWidth="827" pageHeight="1169" math="0" shadow="0">
      <root>
        <mxCell id="WIyWlLk6GJQsqaUBKTNV-0" />
        <mxCell id="WIyWlLk6GJQsqaUBKTNV-1" parent="WIyWlLk6GJQsqaUBKTNV-0" />
        <mxCell id="WIyWlLk6GJQsqaUBKTNV-2" value="" style="rounded=0;html=1;jettySize=auto;orthogonalLoop=1;fontSize=11;endArrow=block;endFill=0;endSize=8;strokeWidth=1;shadow=0;labelBackgroundColor=none;edgeStyle=orthogonalEdgeStyle;" parent="WIyWlLk6GJQsqaUBKTNV-1" edge="1">
          <mxGeometry relative="1" as="geometry">
            <mxPoint x="439.5" y="219" as="sourcePoint" />
            <mxPoint x="439.5" y="279" as="targetPoint" />
          </mxGeometry>
        </mxCell>
        <mxCell id="WIyWlLk6GJQsqaUBKTNV-10" value="آیا خورشت&lt;div&gt;&amp;nbsp;جا افتاده است؟&lt;/div&gt;" style="rhombus;whiteSpace=wrap;html=1;shadow=0;fontFamily=Helvetica;fontSize=12;align=center;strokeWidth=1;spacing=6;spacingTop=-4;" parent="WIyWlLk6GJQsqaUBKTNV-1" vertex="1">
          <mxGeometry x="391" y="760" width="100" height="80" as="geometry" />
        </mxCell>
        <mxCell id="-kkwhXs3jPmH_dcLZvWY-0" value="&amp;nbsp;آماده‌سازی مواد اولیه" style="ellipse;whiteSpace=wrap;html=1;" parent="WIyWlLk6GJQsqaUBKTNV-1" vertex="1">
          <mxGeometry x="391" y="39" width="100" height="60" as="geometry" />
        </mxCell>
        <mxCell id="-kkwhXs3jPmH_dcLZvWY-1" value="خیس کردن&amp;nbsp;&lt;div&gt;و پختن لوبیا&lt;/div&gt;" style="shape=parallelogram;perimeter=parallelogramPerimeter;whiteSpace=wrap;html=1;fixedSize=1;" parent="WIyWlLk6GJQsqaUBKTNV-1" vertex="1">
          <mxGeometry x="381" y="159" width="120" height="60" as="geometry" />
        </mxCell>
        <mxCell id="-kkwhXs3jPmH_dcLZvWY-2" value="" style="rounded=0;html=1;jettySize=auto;orthogonalLoop=1;fontSize=11;endArrow=block;endFill=0;endSize=8;strokeWidth=1;shadow=0;labelBackgroundColor=none;edgeStyle=orthogonalEdgeStyle;" parent="WIyWlLk6GJQsqaUBKTNV-1" edge="1">
          <mxGeometry relative="1" as="geometry">
            <mxPoint x="440.5" y="99" as="sourcePoint" />
            <mxPoint x="440.5" y="159" as="targetPoint" />
          </mxGeometry>
        </mxCell>
        <mxCell id="-kkwhXs3jPmH_dcLZvWY-3" value="&lt;span style=&quot;color: rgba(0, 0, 0, 0); font-family: monospace; font-size: 0px; text-align: start; text-wrap: nowrap;&quot;&gt;%3CmxGraphModel%3E%3Croot%3E%3CmxCell%20id%3D%220%22%2F%3E%3CmxCell%20id%3D%221%22%20parent%3D%220%22%2F%3E%3CmxCell%20id%3D%222%22%20value%3D%22%D8%AE%DB%8C%D8%B3%20%DA%A9%D8%B1%D8%AF%D9%86%20%D9%88%20%D9%BE%D8%AE%D8%AA%D9%86%20%D9%84%D9%88%D8%A8%DB%8C%D8%A7%22%20style%3D%22shape%3Dparallelogram%3Bperimeter%3DparallelogramPerimeter%3BwhiteSpace%3Dwrap%3Bhtml%3D1%3BfixedSize%3D1%3B%22%20vertex%3D%221%22%20parent%3D%221%22%3E%3CmxGeometry%20x%3D%22160%22%20y%3D%22180%22%20width%3D%22120%22%20height%3D%2260%22%20as%3D%22geometry%22%2F%3E%3C%2FmxCell%3E%3C%2Froot%3E%3C%2FmxGraphModel%3E&lt;/span&gt;خرد کردن&amp;nbsp;&lt;div&gt;و تفت دادن سبزی&lt;/div&gt;" style="shape=parallelogram;perimeter=parallelogramPerimeter;whiteSpace=wrap;html=1;fixedSize=1;" parent="WIyWlLk6GJQsqaUBKTNV-1" vertex="1">
          <mxGeometry x="380" y="279" width="120" height="60" as="geometry" />
        </mxCell>
        <mxCell id="-kkwhXs3jPmH_dcLZvWY-4" value="" style="rounded=0;html=1;jettySize=auto;orthogonalLoop=1;fontSize=11;endArrow=block;endFill=0;endSize=8;strokeWidth=1;shadow=0;labelBackgroundColor=none;edgeStyle=orthogonalEdgeStyle;" parent="WIyWlLk6GJQsqaUBKTNV-1" edge="1">
          <mxGeometry relative="1" as="geometry">
            <mxPoint x="439.5" y="340" as="sourcePoint" />
            <mxPoint x="439.5" y="400" as="targetPoint" />
          </mxGeometry>
        </mxCell>
        <mxCell id="-kkwhXs3jPmH_dcLZvWY-5" value="&lt;span style=&quot;color: rgba(0, 0, 0, 0); font-family: monospace; font-size: 0px; text-align: start; text-wrap: nowrap;&quot;&gt;%3CmxGraphModel%3E%3Croot%3E%3CmxCell%20id%3D%220%22%2F%3E%3CmxCell%20id%3D%221%22%20parent%3D%220%22%2F%3E%3CmxCell%20id%3D%222%22%20value%3D%22%D8%AE%DB%8C%D8%B3%20%DA%A9%D8%B1%D8%AF%D9%86%20%D9%88%20%D9%BE%D8%AE%D8%AA%D9%86%20%D9%84%D9%88%D8%A8%DB%8C%D8%A7%22%20style%3D%22shape%3Dparallelogram%3Bperimeter%3DparallelogramPerimeter%3BwhiteSpace%3Dwrap%3Bhtml%3D1%3BfixedSize%3D1%3B%22%20vertex%3D%221%22%20parent%3D%221%22%3E%3CmxGeometry%20x%3D%22160%22%20y%3D%22180%22%20width%3D%22120%22%20height%3D%2260%22%20as%3D%22geometry%22%2F%3E%3C%2FmxCell%3E%3C%2Froot%3E%3C%2FmxGr&lt;/span&gt;تفت دادن&lt;div&gt;گوشت و پیاز&lt;/div&gt;" style="shape=parallelogram;perimeter=parallelogramPerimeter;whiteSpace=wrap;html=1;fixedSize=1;" parent="WIyWlLk6GJQsqaUBKTNV-1" vertex="1">
          <mxGeometry x="380" y="400" width="120" height="60" as="geometry" />
        </mxCell>
        <mxCell id="-kkwhXs3jPmH_dcLZvWY-20" value="" style="rounded=0;html=1;jettySize=auto;orthogonalLoop=1;fontSize=11;endArrow=block;endFill=0;endSize=8;strokeWidth=1;shadow=0;labelBackgroundColor=none;edgeStyle=orthogonalEdgeStyle;" parent="WIyWlLk6GJQsqaUBKTNV-1" edge="1">
          <mxGeometry relative="1" as="geometry">
            <mxPoint x="439.5" y="460" as="sourcePoint" />
            <mxPoint x="439.5" y="520" as="targetPoint" />
          </mxGeometry>
        </mxCell>
        <mxCell id="-kkwhXs3jPmH_dcLZvWY-21" value="ترکیب سبزی،&lt;div&gt;&amp;nbsp;لوبیا و گوشت&lt;br&gt;&lt;/div&gt;" style="shape=parallelogram;perimeter=parallelogramPerimeter;whiteSpace=wrap;html=1;fixedSize=1;" parent="WIyWlLk6GJQsqaUBKTNV-1" vertex="1">
          <mxGeometry x="380" y="520" width="120" height="60" as="geometry" />
        </mxCell>
        <mxCell id="-kkwhXs3jPmH_dcLZvWY-22" value="" style="rounded=0;html=1;jettySize=auto;orthogonalLoop=1;fontSize=11;endArrow=block;endFill=0;endSize=8;strokeWidth=1;shadow=0;labelBackgroundColor=none;edgeStyle=orthogonalEdgeStyle;" parent="WIyWlLk6GJQsqaUBKTNV-1" edge="1">
          <mxGeometry relative="1" as="geometry">
            <mxPoint x="439.5" y="579" as="sourcePoint" />
            <mxPoint x="439.5" y="639" as="targetPoint" />
          </mxGeometry>
        </mxCell>
        <mxCell id="-kkwhXs3jPmH_dcLZvWY-23" value="&lt;div&gt;اضافه کردن آب&amp;nbsp;&lt;/div&gt;&lt;div&gt;و لیمو عمانی&lt;br&gt;&lt;/div&gt;" style="shape=parallelogram;perimeter=parallelogramPerimeter;whiteSpace=wrap;html=1;fixedSize=1;" parent="WIyWlLk6GJQsqaUBKTNV-1" vertex="1">
          <mxGeometry x="380" y="639" width="120" height="61" as="geometry" />
        </mxCell>
        <mxCell id="-kkwhXs3jPmH_dcLZvWY-24" value="" style="rounded=0;html=1;jettySize=auto;orthogonalLoop=1;fontSize=11;endArrow=block;endFill=0;endSize=8;strokeWidth=1;shadow=0;labelBackgroundColor=none;edgeStyle=orthogonalEdgeStyle;" parent="WIyWlLk6GJQsqaUBKTNV-1" edge="1">
          <mxGeometry relative="1" as="geometry">
            <mxPoint x="440.5" y="700" as="sourcePoint" />
            <mxPoint x="440.5" y="760" as="targetPoint" />
          </mxGeometry>
        </mxCell>
        <mxCell id="-kkwhXs3jPmH_dcLZvWY-25" value="" style="endArrow=classic;html=1;rounded=0;" parent="WIyWlLk6GJQsqaUBKTNV-1" edge="1">
          <mxGeometry width="50" height="50" relative="1" as="geometry">
            <mxPoint x="440" y="840" as="sourcePoint" />
            <mxPoint x="560" y="880" as="targetPoint" />
          </mxGeometry>
        </mxCell>
        <mxCell id="-kkwhXs3jPmH_dcLZvWY-26" value="بله" style="edgeLabel;html=1;align=center;verticalAlign=middle;resizable=0;points=[];" parent="-kkwhXs3jPmH_dcLZvWY-25" connectable="0" vertex="1">
          <mxGeometry x="-0.055" y="4" relative="1" as="geometry">
            <mxPoint x="3" y="-5" as="offset" />
          </mxGeometry>
        </mxCell>
        <mxCell id="-kkwhXs3jPmH_dcLZvWY-27" value="" style="endArrow=classic;html=1;rounded=0;" parent="WIyWlLk6GJQsqaUBKTNV-1" edge="1">
          <mxGeometry width="50" height="50" relative="1" as="geometry">
            <mxPoint x="440" y="840" as="sourcePoint" />
            <mxPoint x="320" y="880" as="targetPoint" />
          </mxGeometry>
        </mxCell>
        <mxCell id="-kkwhXs3jPmH_dcLZvWY-28" value="خیر" style="edgeLabel;html=1;align=center;verticalAlign=middle;resizable=0;points=[];" parent="-kkwhXs3jPmH_dcLZvWY-27" connectable="0" vertex="1">
          <mxGeometry x="0.035" relative="1" as="geometry">
            <mxPoint x="-8" y="-11" as="offset" />
          </mxGeometry>
        </mxCell>
        <mxCell id="-kkwhXs3jPmH_dcLZvWY-29" value="سرو کردن خورشت" style="ellipse;whiteSpace=wrap;html=1;" parent="WIyWlLk6GJQsqaUBKTNV-1" vertex="1">
          <mxGeometry x="510" y="880" width="120" height="80" as="geometry" />
        </mxCell>
        <mxCell id="-kkwhXs3jPmH_dcLZvWY-30" value="&lt;div&gt;پخت ادامه پیدا کند&lt;br&gt;&lt;/div&gt;" style="shape=parallelogram;perimeter=parallelogramPerimeter;whiteSpace=wrap;html=1;fixedSize=1;" parent="WIyWlLk6GJQsqaUBKTNV-1" vertex="1">
          <mxGeometry x="250" y="880" width="120" height="61" as="geometry" />
        </mxCell>
        <mxCell id="-kkwhXs3jPmH_dcLZvWY-32" value="" style="rounded=0;html=1;jettySize=auto;orthogonalLoop=1;fontSize=11;endArrow=block;endFill=0;endSize=8;strokeWidth=1;shadow=0;labelBackgroundColor=none;edgeStyle=orthogonalEdgeStyle;entryX=0;entryY=0.5;entryDx=0;entryDy=0;exitX=0.942;exitY=0.672;exitDx=0;exitDy=0;exitPerimeter=0;" parent="WIyWlLk6GJQsqaUBKTNV-1" source="-kkwhXs3jPmH_dcLZvWY-30" target="-kkwhXs3jPmH_dcLZvWY-29" edge="1">
          <mxGeometry relative="1" as="geometry">
            <mxPoint x="413" y="941" as="sourcePoint" />
            <mxPoint x="413" y="1001" as="targetPoint" />
          </mxGeometry>
        </mxCell>
      </root>
    </mxGraphModel>
  </diagram>
</mxfile>
